<?xml version="1.0" encoding="UTF-8"?>
<svg width="630px" height="335px" viewBox="0 0 630 335" version="1.1" xmlns="http://www.w3.org/2000/svg" xmlns:xlink="http://www.w3.org/1999/xlink">
    <title>Group</title>
    <defs>
        <path d="M120.54,47.94 C101.536,47.912 81.284,47.86 62.808,47.808 C39.06,47.748 18.26,47.692 6.8,47.692 C4.228,47.692 2.124,47.692 0.564,47.7 C6.108,32.148 22.2,9.288 28.32,6.66 C43.872,-0.072 83.652,0.684 94.56,0.144 L98.88,0.144 C109.788,0.684 148.812,-0.072 164.328,6.66 C170.448,9.288 186.576,32.148 192.12,47.7 C190.816,47.732 189.184,47.76 187.256,47.788 C178.808,47.752 169.632,47.724 159.96,47.724 C147.484,47.724 134.184,47.776 120.54,47.94 L120.54,47.94 Z" id="path-1"></path>
        <path d="M48.32,31.872 L6.02,31.872 L0.332,0.732 L1.288,0.764 C3.656,16.54 6.02,31.044 6.02,31.044 C6.02,31.044 15.416,31.044 17.468,31.044 L48.32,31.044 L48.32,31.872" id="path-3"></path>
        <path d="M16.852,22.872 L0.58,22.872 L0.58,22.044 L18.036,22.044 L16.852,22.872 M45.892,2.532 C46.016,1.804 46.14,1.064 46.264,0.316 L48.928,0.408 L45.892,2.532" id="path-5"></path>
    </defs>
    <g id="auto-detialing-page" stroke="none" stroke-width="1" fill="none" fill-rule="evenodd">
        <g id="Group" transform="translate(0.000000, 0.000000)">
            <g id="Group-7">
                <path d="M324.579127,237.470436 L62.0961273,237.470436 C52.7821273,237.470436 45.1611273,229.850436 45.1611273,220.536436 L45.1611273,38.9624361 C45.1611273,29.6484361 52.7821273,22.0284361 62.0961273,22.0284361 L324.579127,22.0284361 C333.892127,22.0284361 341.513127,29.6484361 341.513127,38.9624361 L341.513127,220.536436 C341.513127,229.850436 333.892127,237.470436 324.579127,237.470436" id="Fill-14" fill="#FFFFFE"></path>
                <path d="M94.2141273,38.5334361 C94.2141273,40.1984361 92.8641273,41.5494361 91.1981273,41.5494361 C89.5321273,41.5494361 88.1821273,40.1984361 88.1821273,38.5334361 C88.1821273,36.8674361 89.5321273,35.5174361 91.1981273,35.5174361 C92.8641273,35.5174361 94.2141273,36.8674361 94.2141273,38.5334361" id="Fill-15" fill="#ACAEAA"></path>
                <path d="M91.1571273,41.5644361 L91.2981273,41.5504361 C90.0531273,41.1784361 89.1411273,40.0394361 89.1411273,38.6744361 C89.1411273,37.0564361 90.4171273,35.7474361 92.0161273,35.6724361 C91.7421273,35.5904361 91.4571273,35.5334361 91.1571273,35.5334361 C89.4911273,35.5334361 88.1411273,36.8834361 88.1411273,38.5494361 C88.1411273,40.2144361 89.4911273,41.5644361 91.1571273,41.5644361" id="Fill-16" fill="#929592"></path>
                <path d="M159.339127,38.5334361 C159.339127,40.1984361 157.989127,41.5494361 156.323127,41.5494361 C154.657127,41.5494361 153.307127,40.1984361 153.307127,38.5334361 C153.307127,36.8674361 154.657127,35.5174361 156.323127,35.5174361 C157.989127,35.5174361 159.339127,36.8674361 159.339127,38.5334361" id="Fill-17" fill="#ACAEAA"></path>
                <path d="M156.282127,41.5644361 L156.423127,41.5504361 C155.178127,41.1784361 154.266127,40.0394361 154.266127,38.6744361 C154.266127,37.0564361 155.542127,35.7474361 157.141127,35.6724361 C156.867127,35.5904361 156.582127,35.5334361 156.282127,35.5334361 C154.616127,35.5334361 153.266127,36.8834361 153.266127,38.5494361 C153.266127,40.2144361 154.616127,41.5644361 156.282127,41.5644361" id="Fill-18" fill="#929592"></path>
                <path d="M224.088127,38.5334361 C224.088127,40.1984361 222.739127,41.5494361 221.073127,41.5494361 C219.408127,41.5494361 218.057127,40.1984361 218.057127,38.5334361 C218.057127,36.8674361 219.408127,35.5174361 221.073127,35.5174361 C222.739127,35.5174361 224.088127,36.8674361 224.088127,38.5334361" id="Fill-19" fill="#ACAEAA"></path>
                <path d="M221.032127,41.5644361 L221.172127,41.5504361 C219.928127,41.1784361 219.016127,40.0394361 219.016127,38.6744361 C219.016127,37.0564361 220.292127,35.7474361 221.890127,35.6724361 C221.617127,35.5904361 221.333127,35.5334361 221.032127,35.5334361 C219.366127,35.5334361 218.016127,36.8834361 218.016127,38.5494361 C218.016127,40.2144361 219.366127,41.5644361 221.032127,41.5644361" id="Fill-20" fill="#929592"></path>
                <path d="M291.172127,38.5334361 C291.172127,40.1984361 289.822127,41.5494361 288.157127,41.5494361 C286.491127,41.5494361 285.140127,40.1984361 285.140127,38.5334361 C285.140127,36.8674361 286.491127,35.5174361 288.157127,35.5174361 C289.822127,35.5174361 291.172127,36.8674361 291.172127,38.5334361" id="Fill-21" fill="#ACAEAA"></path>
                <path d="M288.115127,41.5644361 L288.256127,41.5504361 C287.012127,41.1784361 286.099127,40.0394361 286.099127,38.6744361 C286.099127,37.0564361 287.375127,35.7474361 288.974127,35.6724361 C288.700127,35.5904361 288.416127,35.5334361 288.115127,35.5334361 C286.450127,35.5334361 285.099127,36.8834361 285.099127,38.5484361 C285.099127,40.2144361 286.450127,41.5644361 288.115127,41.5644361" id="Fill-22" fill="#929592"></path>
                <path d="M90.7861273,8.59043613 C98.3511273,8.59043613 104.533127,14.5554361 104.916127,22.0274361 L107.916127,22.0274361 C107.529127,12.9014361 100.005127,5.59043613 90.7861273,5.59043613 C81.3201273,5.59043613 73.6191273,13.2904361 73.6191273,22.7564361 C73.6191273,32.2224361 81.3201273,39.9234361 90.7861273,39.9234361 C91.6141273,39.9234361 92.2861273,39.2524361 92.2861273,38.4234361 C92.2861273,37.5944361 91.6141273,36.9234361 90.7861273,36.9234361 C82.9741273,36.9234361 76.6191273,30.5684361 76.6191273,22.7564361 C76.6191273,14.9444361 82.9741273,8.59043613 90.7861273,8.59043613" id="Fill-23" fill="#CACFC7"></path>
                <path d="M156.286127,8.59043613 C163.851127,8.59043613 170.033127,14.5554361 170.416127,22.0274361 L173.416127,22.0274361 C173.029127,12.9014361 165.505127,5.59043613 156.286127,5.59043613 C146.820127,5.59043613 139.119127,13.2904361 139.119127,22.7564361 C139.119127,32.2224361 146.820127,39.9234361 156.286127,39.9234361 C157.114127,39.9234361 157.786127,39.2524361 157.786127,38.4234361 C157.786127,37.5944361 157.114127,36.9234361 156.286127,36.9234361 C148.474127,36.9234361 142.119127,30.5684361 142.119127,22.7564361 C142.119127,14.9444361 148.474127,8.59043613 156.286127,8.59043613" id="Fill-24" fill="#CACFC7"></path>
                <path d="M221.536127,8.59043613 C229.101127,8.59043613 235.283127,14.5554361 235.666127,22.0274361 L238.666127,22.0274361 C238.280127,12.9014361 230.755127,5.59043613 221.536127,5.59043613 C212.070127,5.59043613 204.369127,13.2904361 204.369127,22.7564361 C204.369127,32.2224361 212.070127,39.9234361 221.536127,39.9234361 C222.364127,39.9234361 223.036127,39.2524361 223.036127,38.4234361 C223.036127,37.5944361 222.364127,36.9234361 221.536127,36.9234361 C213.724127,36.9234361 207.369127,30.5684361 207.369127,22.7564361 C207.369127,14.9444361 213.724127,8.59043613 221.536127,8.59043613" id="Fill-25" fill="#CACFC7"></path>
                <path d="M288.286127,8.58943613 C295.851127,8.58943613 302.033127,14.5554361 302.416127,22.0274361 L305.415127,22.0274361 C305.030127,12.9014361 297.505127,5.59043613 288.286127,5.59043613 C278.820127,5.59043613 271.119127,13.2904361 271.119127,22.7564361 C271.119127,32.2224361 278.820127,39.9234361 288.286127,39.9234361 C289.114127,39.9234361 289.786127,39.2524361 289.786127,38.4234361 C289.786127,37.5944361 289.114127,36.9234361 288.286127,36.9234361 C280.474127,36.9234361 274.119127,30.5684361 274.119127,22.7564361 C274.119127,14.9444361 280.474127,8.58943613 288.286127,8.58943613" id="Fill-26" fill="#CACFC7"></path>
                <path d="M329.578127,78.8614361 L64.5781273,78.8614361 C64.1661273,78.8614361 63.8281273,78.5244361 63.8281273,78.1114361 C63.8281273,77.6984361 64.1661273,77.3614361 64.5781273,77.3614361 L329.578127,77.3614361 C329.991127,77.3614361 330.328127,77.6984361 330.328127,78.1114361 C330.328127,78.5244361 329.991127,78.8614361 329.578127,78.8614361" id="Fill-27" fill="#DCDED9"></path>
                <path d="M94.3281273,205.756436 L94.3281273,71.1114361 C94.3281273,70.6984361 94.6661273,70.3614361 95.0781273,70.3614361 C95.4901273,70.3614361 95.8281273,70.6984361 95.8281273,71.1114361 L95.8281273,205.756436 C95.8281273,206.168436 95.4901273,206.506436 95.0781273,206.506436 C94.6661273,206.506436 94.3281273,206.168436 94.3281273,205.756436" id="Fill-28" fill="#DCDED9"></path>
                <path d="M135.778127,205.756436 L135.778127,71.1114361 C135.778127,70.6984361 136.115127,70.3614361 136.528127,70.3614361 C136.940127,70.3614361 137.278127,70.6984361 137.278127,71.1114361 L137.278127,205.756436 C137.278127,206.168436 136.940127,206.506436 136.528127,206.506436 C136.115127,206.506436 135.778127,206.168436 135.778127,205.756436" id="Fill-29" fill="#DCDED9"></path>
                <path d="M177.228127,205.756436 L177.228127,71.1114361 C177.228127,70.6984361 177.565127,70.3614361 177.978127,70.3614361 C178.391127,70.3614361 178.728127,70.6984361 178.728127,71.1114361 L178.728127,205.756436 C178.728127,206.168436 178.391127,206.506436 177.978127,206.506436 C177.565127,206.506436 177.228127,206.168436 177.228127,205.756436" id="Fill-30" fill="#DCDED9"></path>
                <path d="M218.678127,205.756436 L218.678127,71.1114361 C218.678127,70.6984361 219.015127,70.3614361 219.428127,70.3614361 C219.840127,70.3614361 220.178127,70.6984361 220.178127,71.1114361 L220.178127,205.756436 C220.178127,206.168436 219.840127,206.506436 219.428127,206.506436 C219.015127,206.506436 218.678127,206.168436 218.678127,205.756436" id="Fill-31" fill="#DCDED9"></path>
                <path d="M260.127127,205.756436 L260.127127,71.1114361 C260.127127,70.6984361 260.465127,70.3614361 260.877127,70.3614361 C261.290127,70.3614361 261.627127,70.6984361 261.627127,71.1114361 L261.627127,205.756436 C261.627127,206.168436 261.290127,206.506436 260.877127,206.506436 C260.465127,206.506436 260.127127,206.168436 260.127127,205.756436" id="Fill-32" fill="#DCDED9"></path>
                <path d="M301.578127,205.756436 L301.578127,71.1114361 C301.578127,70.6984361 301.916127,70.3614361 302.328127,70.3614361 C302.741127,70.3614361 303.078127,70.6984361 303.078127,71.1114361 L303.078127,205.756436 C303.078127,206.168436 302.741127,206.506436 302.328127,206.506436 C301.916127,206.506436 301.578127,206.168436 301.578127,205.756436" id="Fill-33" fill="#DCDED9"></path>
                <path d="M329.578127,110.361436 L64.5781273,110.361436 C64.1661273,110.361436 63.8281273,110.024436 63.8281273,109.611436 C63.8281273,109.198436 64.1661273,108.861436 64.5781273,108.861436 L329.578127,108.861436 C329.991127,108.861436 330.328127,109.198436 330.328127,109.611436 C330.328127,110.024436 329.991127,110.361436 329.578127,110.361436" id="Fill-34" fill="#DCDED9"></path>
                <path d="M329.578127,138.861436 L64.5781273,138.861436 C64.1661273,138.861436 63.8281273,138.523436 63.8281273,138.111436 C63.8281273,137.699436 64.1661273,137.361436 64.5781273,137.361436 L329.578127,137.361436 C329.991127,137.361436 330.328127,137.699436 330.328127,138.111436 C330.328127,138.523436 329.991127,138.861436 329.578127,138.861436" id="Fill-35" fill="#DCDED9"></path>
                <path d="M329.578127,170.861436 L64.5781273,170.861436 C64.1661273,170.861436 63.8281273,170.523436 63.8281273,170.111436 C63.8281273,169.699436 64.1661273,169.361436 64.5781273,169.361436 L329.578127,169.361436 C329.991127,169.361436 330.328127,169.699436 330.328127,170.111436 C330.328127,170.523436 329.991127,170.861436 329.578127,170.861436" id="Fill-36" fill="#DCDED9"></path>
                <path d="M329.578127,199.861436 L64.5781273,199.861436 C64.1661273,199.861436 63.8281273,199.523436 63.8281273,199.111436 C63.8281273,198.699436 64.1661273,198.361436 64.5781273,198.361436 L329.578127,198.361436 C329.991127,198.361436 330.328127,198.699436 330.328127,199.111436 C330.328127,199.523436 329.991127,199.861436 329.578127,199.861436" id="Fill-37" fill="#DCDED9"></path>
                <path d="M88.2031273,74.1114361 L70.5781273,74.1114361 C69.2031273,74.1114361 68.0781273,72.9864361 68.0781273,71.6114361 C68.0781273,70.2364361 69.2031273,69.1114361 70.5781273,69.1114361 L88.2031273,69.1114361 C89.5781273,69.1114361 90.7031273,70.2364361 90.7031273,71.6114361 C90.7031273,72.9864361 89.5781273,74.1114361 88.2031273,74.1114361" id="Fill-38" fill="#D9DDE3"></path>
                <path d="M125.141127,74.1114361 L107.516127,74.1114361 C106.141127,74.1114361 105.016127,72.9864361 105.016127,71.6114361 C105.016127,70.2364361 106.141127,69.1114361 107.516127,69.1114361 L125.141127,69.1114361 C126.516127,69.1114361 127.641127,70.2364361 127.641127,71.6114361 C127.641127,72.9864361 126.516127,74.1114361 125.141127,74.1114361" id="Fill-39" fill="#D9DDE3"></path>
                <path d="M166.391127,74.1114361 L148.766127,74.1114361 C147.391127,74.1114361 146.266127,72.9864361 146.266127,71.6114361 C146.266127,70.2364361 147.391127,69.1114361 148.766127,69.1114361 L166.391127,69.1114361 C167.766127,69.1114361 168.891127,70.2364361 168.891127,71.6114361 C168.891127,72.9864361 167.766127,74.1114361 166.391127,74.1114361" id="Fill-40" fill="#D9DDE3"></path>
                <path d="M207.390127,74.1114361 L189.765127,74.1114361 C188.390127,74.1114361 187.265127,72.9864361 187.265127,71.6114361 C187.265127,70.2364361 188.390127,69.1114361 189.765127,69.1114361 L207.390127,69.1114361 C208.765127,69.1114361 209.890127,70.2364361 209.890127,71.6114361 C209.890127,72.9864361 208.765127,74.1114361 207.390127,74.1114361" id="Fill-41" fill="#D9DDE3"></path>
                <path d="M249.390127,74.1114361 L231.765127,74.1114361 C230.390127,74.1114361 229.265127,72.9864361 229.265127,71.6114361 C229.265127,70.2364361 230.390127,69.1114361 231.765127,69.1114361 L249.390127,69.1114361 C250.765127,69.1114361 251.890127,70.2364361 251.890127,71.6114361 C251.890127,72.9864361 250.765127,74.1114361 249.390127,74.1114361" id="Fill-42" fill="#D9DDE3"></path>
                <path d="M289.140127,74.1114361 L271.515127,74.1114361 C270.140127,74.1114361 269.015127,72.9864361 269.015127,71.6114361 C269.015127,70.2364361 270.140127,69.1114361 271.515127,69.1114361 L289.140127,69.1114361 C290.515127,69.1114361 291.640127,70.2364361 291.640127,71.6114361 C291.640127,72.9864361 290.515127,74.1114361 289.140127,74.1114361" id="Fill-43" fill="#D9DDE3"></path>
                <path d="M326.390127,74.1114361 L308.765127,74.1114361 C307.390127,74.1114361 306.265127,72.9864361 306.265127,71.6114361 C306.265127,70.2364361 307.390127,69.1114361 308.765127,69.1114361 L326.390127,69.1114361 C327.765127,69.1114361 328.890127,70.2364361 328.890127,71.6114361 C328.890127,72.9864361 327.765127,74.1114361 326.390127,74.1114361" id="Fill-44" fill="#DE4546"></path>
                <path d="M131.161127,90.2784361 L102.328127,90.2784361 C101.549127,90.2784361 100.911127,89.6404361 100.911127,88.8614361 C100.911127,88.0824361 101.549127,87.4444361 102.328127,87.4444361 L131.161127,87.4444361 C131.940127,87.4444361 132.578127,88.0824361 132.578127,88.8614361 C132.578127,89.6404361 131.940127,90.2784361 131.161127,90.2784361" id="Fill-45" fill="#DCDED9"></path>
                <path d="M131.161127,95.7784361 L102.328127,95.7784361 C101.549127,95.7784361 100.911127,95.1404361 100.911127,94.3614361 C100.911127,93.5824361 101.549127,92.9444361 102.328127,92.9444361 L131.161127,92.9444361 C131.940127,92.9444361 132.578127,93.5824361 132.578127,94.3614361 C132.578127,95.1404361 131.940127,95.7784361 131.161127,95.7784361" id="Fill-46" fill="#DCDED9"></path>
                <path d="M119.459127,101.194436 L102.328127,101.194436 C101.549127,101.194436 100.911127,100.557436 100.911127,99.7784361 C100.911127,98.9994361 101.549127,98.3614361 102.328127,98.3614361 L119.459127,98.3614361 C120.238127,98.3614361 120.875127,98.9994361 120.875127,99.7784361 C120.875127,100.557436 120.238127,101.194436 119.459127,101.194436" id="Fill-47" fill="#DCDED9"></path>
                <path d="M213.412127,120.278436 L184.578127,120.278436 C183.798127,120.278436 183.161127,119.640436 183.161127,118.861436 C183.161127,118.082436 183.798127,117.444436 184.578127,117.444436 L213.412127,117.444436 C214.190127,117.444436 214.828127,118.082436 214.828127,118.861436 C214.828127,119.640436 214.190127,120.278436 213.412127,120.278436" id="Fill-48" fill="#DCDED9"></path>
                <path d="M213.412127,125.778436 L184.578127,125.778436 C183.798127,125.778436 183.161127,125.140436 183.161127,124.361436 C183.161127,123.582436 183.798127,122.944436 184.578127,122.944436 L213.412127,122.944436 C214.190127,122.944436 214.828127,123.582436 214.828127,124.361436 C214.828127,125.140436 214.190127,125.778436 213.412127,125.778436" id="Fill-49" fill="#DCDED9"></path>
                <path d="M201.709127,131.194436 L184.578127,131.194436 C183.798127,131.194436 183.161127,130.557436 183.161127,129.778436 C183.161127,128.999436 183.798127,128.361436 184.578127,128.361436 L201.709127,128.361436 C202.488127,128.361436 203.125127,128.999436 203.125127,129.778436 C203.125127,130.557436 202.488127,131.194436 201.709127,131.194436" id="Fill-50" fill="#DCDED9"></path>
                <path d="M171.911127,181.778436 L143.078127,181.778436 C142.299127,181.778436 141.661127,181.140436 141.661127,180.361436 C141.661127,179.582436 142.299127,178.944436 143.078127,178.944436 L171.911127,178.944436 C172.690127,178.944436 173.328127,179.582436 173.328127,180.361436 C173.328127,181.140436 172.690127,181.778436 171.911127,181.778436" id="Fill-51" fill="#DCDED9"></path>
                <path d="M171.911127,187.278436 L143.078127,187.278436 C142.299127,187.278436 141.661127,186.640436 141.661127,185.861436 C141.661127,185.082436 142.299127,184.444436 143.078127,184.444436 L171.911127,184.444436 C172.690127,184.444436 173.328127,185.082436 173.328127,185.861436 C173.328127,186.640436 172.690127,187.278436 171.911127,187.278436" id="Fill-52" fill="#DCDED9"></path>
                <path d="M160.209127,192.694436 L143.078127,192.694436 C142.299127,192.694436 141.661127,192.057436 141.661127,191.278436 C141.661127,190.499436 142.299127,189.861436 143.078127,189.861436 L160.209127,189.861436 C160.988127,189.861436 161.625127,190.499436 161.625127,191.278436 C161.625127,192.057436 160.988127,192.694436 160.209127,192.694436" id="Fill-53" fill="#DCDED9"></path>
                <path d="M90.8281273,152.861436 L61.9951273,152.861436 C61.2151273,152.861436 60.5781273,152.223436 60.5781273,151.444436 C60.5781273,150.665436 61.2151273,150.028436 61.9951273,150.028436 L90.8281273,150.028436 C91.6071273,150.028436 92.2451273,150.665436 92.2451273,151.444436 C92.2451273,152.223436 91.6071273,152.861436 90.8281273,152.861436" id="Fill-54" fill="#DCDED9"></path>
                <path d="M90.8281273,158.361436 L61.9951273,158.361436 C61.2151273,158.361436 60.5781273,157.723436 60.5781273,156.944436 C60.5781273,156.165436 61.2151273,155.528436 61.9951273,155.528436 L90.8281273,155.528436 C91.6071273,155.528436 92.2451273,156.165436 92.2451273,156.944436 C92.2451273,157.723436 91.6071273,158.361436 90.8281273,158.361436" id="Fill-55" fill="#DCDED9"></path>
                <path d="M255.162127,153.528436 L226.328127,153.528436 C225.548127,153.528436 224.912127,152.890436 224.912127,152.111436 C224.912127,151.332436 225.548127,150.694436 226.328127,150.694436 L255.162127,150.694436 C255.940127,150.694436 256.578127,151.332436 256.578127,152.111436 C256.578127,152.890436 255.940127,153.528436 255.162127,153.528436" id="Fill-56" fill="#DCDED9"></path>
                <path d="M255.162127,159.028436 L226.328127,159.028436 C225.548127,159.028436 224.912127,158.390436 224.912127,157.611436 C224.912127,156.832436 225.548127,156.194436 226.328127,156.194436 L255.162127,156.194436 C255.940127,156.194436 256.578127,156.832436 256.578127,157.611436 C256.578127,158.390436 255.940127,159.028436 255.162127,159.028436" id="Fill-57" fill="#DCDED9"></path>
                <path d="M254.162127,92.1944361 L225.328127,92.1944361 C224.548127,92.1944361 223.912127,91.5574361 223.912127,90.7784361 C223.912127,89.9994361 224.548127,89.3614361 225.328127,89.3614361 L254.162127,89.3614361 C254.940127,89.3614361 255.578127,89.9994361 255.578127,90.7784361 C255.578127,91.5574361 254.940127,92.1944361 254.162127,92.1944361" id="Fill-58" fill="#DCDED9"></path>
                <path d="M254.162127,97.6944361 L225.328127,97.6944361 C224.548127,97.6944361 223.912127,97.0574361 223.912127,96.2784361 C223.912127,95.4994361 224.548127,94.8614361 225.328127,94.8614361 L254.162127,94.8614361 C254.940127,94.8614361 255.578127,95.4994361 255.578127,96.2784361 C255.578127,97.0574361 254.940127,97.6944361 254.162127,97.6944361" id="Fill-59" fill="#DCDED9"></path>
                <path d="M124.556127,118.059436 L124.556127,118.059436 C123.749127,117.252436 122.429127,117.252436 121.622127,118.059436 L114.040127,125.640436 L110.199127,121.799436 C109.392127,120.992436 108.071127,120.992436 107.264127,121.799436 C106.457127,122.606436 106.457127,123.927436 107.264127,124.734436 L112.572127,130.042436 C112.976127,130.445436 113.508127,130.647436 114.040127,130.64644 C114.572127,130.647436 115.104127,130.445436 115.508127,130.042436 L124.556127,120.993436 C125.363127,120.186436 125.363127,118.866436 124.556127,118.059436" id="Fill-60" fill="#4AAE4C"></path>
                <path d="M206.556127,149.059436 L206.556127,149.059436 C205.749127,148.252436 204.428127,148.252436 203.622127,149.059436 L196.040127,156.640436 L192.199127,152.799436 C191.392127,151.992436 190.071127,151.992436 189.264127,152.799436 C188.458127,153.606436 188.458127,154.926436 189.264127,155.734436 L194.572127,161.042436 C194.976127,161.445436 195.508127,161.647436 196.040127,161.64644 C196.572127,161.647436 197.104127,161.445436 197.508127,161.042436 L206.556127,151.994436 C207.363127,151.186436 207.363127,149.866436 206.556127,149.059436" id="Fill-61" fill="#63C492"></path>
                <path d="M125.223127,179.059436 L125.223127,179.059436 C124.416127,178.252436 123.095127,178.252436 122.288127,179.059436 L114.707127,186.640436 L110.865127,182.799436 C110.059127,181.992436 108.738127,181.992436 107.931127,182.799436 C107.124127,183.606436 107.124127,184.926436 107.931127,185.734436 L113.239127,191.042436 C113.643127,191.445436 114.174127,191.647436 114.707127,191.64644 C115.239127,191.647436 115.771127,191.445436 116.174127,191.042436 L125.223127,181.994436 C126.030127,181.186436 126.030127,179.866436 125.223127,179.059436" id="Fill-62" fill="#63C492"></path>
                <path d="M248.889127,180.392436 L248.889127,180.392436 C248.083127,179.586436 246.762127,179.586436 245.955127,180.392436 L238.374127,187.973436 L234.532127,184.132436 C233.725127,183.326436 232.405127,183.326436 231.597127,184.132436 C230.791127,184.939436 230.791127,186.260436 231.597127,187.067436 L236.906127,192.375436 C237.309127,192.779436 237.841127,192.980436 238.374127,192.980436 C238.906127,192.980436 239.437127,192.779436 239.841127,192.375436 L248.889127,183.327436 C249.696127,182.520436 249.696127,181.199436 248.889127,180.392436" id="Fill-63" fill="#63C492"></path>
                <path d="M165.889127,88.3924361 L165.889127,88.3924361 C165.083127,87.5854361 163.762127,87.5854361 162.955127,88.3924361 L155.374127,95.9744361 L151.532127,92.1324361 C150.725127,91.3254361 149.405127,91.3254361 148.598127,92.1324361 C147.791127,92.9404361 147.791127,94.2604361 148.598127,95.0674361 L153.905127,100.375436 C154.309127,100.778436 154.841127,100.980436 155.374127,100.980436 C155.905127,100.980436 156.438127,100.778436 156.841127,100.375436 L165.889127,91.3274361 C166.696127,90.5204361 166.696127,89.1994361 165.889127,88.3924361" id="Fill-64" fill="#63C492"></path>
                <path d="M206.889127,88.3924361 L206.889127,88.3924361 C206.083127,87.5854361 204.762127,87.5854361 203.955127,88.3924361 L196.374127,95.9744361 L192.532127,92.1324361 C191.725127,91.3254361 190.405127,91.3254361 189.597127,92.1324361 C188.791127,92.9404361 188.791127,94.2604361 189.597127,95.0674361 L194.906127,100.375436 C195.309127,100.778436 195.841127,100.980436 196.374127,100.980436 C196.906127,100.980436 197.437127,100.778436 197.841127,100.375436 L206.889127,91.3274361 C207.696127,90.5204361 207.696127,89.1994361 206.889127,88.3924361" id="Fill-65" fill="#63C492"></path>
                <path d="M286.430127,189.817436 L286.430127,189.817436 C285.846127,190.400436 284.892127,190.400436 284.308127,189.817436 L277.768127,183.276436 C277.184127,182.693436 277.184127,181.738436 277.768127,181.155436 C278.351127,180.572436 279.305127,180.572436 279.889127,181.155436 L286.430127,187.696436 C287.013127,188.279436 287.013127,189.234436 286.430127,189.817436" id="Fill-66" fill="#DE4546"></path>
                <path d="M277.831127,189.817436 L277.831127,189.817436 C278.414127,190.400436 279.368127,190.400436 279.952127,189.817436 L286.493127,183.276436 C287.076127,182.693436 287.076127,181.738436 286.493127,181.155436 C285.909127,180.572436 284.955127,180.572436 284.371127,181.155436 L277.831127,187.696436 C277.247127,188.279436 277.247127,189.234436 277.831127,189.817436" id="Fill-67" fill="#DE4546"></path>
                <path d="M321.763127,159.359436 L321.763127,159.359436 C321.180127,159.942436 320.225127,159.942436 319.642127,159.359436 L313.101127,152.818436 C312.518127,152.235436 312.518127,151.280436 313.101127,150.697436 C313.684127,150.113436 314.639127,150.113436 315.222127,150.697436 L321.763127,157.237436 C322.346127,157.821436 322.346127,158.775436 321.763127,159.359436" id="Fill-68" fill="#DE4546"></path>
                <path d="M313.164127,159.359436 L313.164127,159.359436 C313.747127,159.942436 314.702127,159.942436 315.285127,159.359436 L321.826127,152.818436 C322.409127,152.235436 322.409127,151.280436 321.826127,150.697436 C321.243127,150.113436 320.288127,150.113436 319.705127,150.697436 L313.164127,157.237436 C312.581127,157.821436 312.581127,158.775436 313.164127,159.359436" id="Fill-69" fill="#DE4546"></path>
                <path d="M322.430127,100.026436 L322.430127,100.026436 C321.846127,100.609436 320.892127,100.609436 320.308127,100.026436 L313.768127,93.4854361 C313.184127,92.9014361 313.184127,91.9464361 313.768127,91.3634361 C314.351127,90.7804361 315.305127,90.7804361 315.889127,91.3634361 L322.430127,97.9044361 C323.013127,98.4874361 323.013127,99.4424361 322.430127,100.026436" id="Fill-70" fill="#DE4546"></path>
                <path d="M313.831127,100.026436 L313.831127,100.026436 C314.414127,100.609436 315.368127,100.609436 315.952127,100.026436 L322.493127,93.4854361 C323.076127,92.9014361 323.076127,91.9464361 322.493127,91.3634361 C321.909127,90.7804361 320.955127,90.7804361 320.371127,91.3634361 L313.831127,97.9044361 C313.247127,98.4874361 313.247127,99.4424361 313.831127,100.026436" id="Fill-71" fill="#DE4546"></path>
                <path d="M61.5211273,149.382436 L55.9261273,153.251436 C55.2241273,153.737436 54.2511273,153.559436 53.7661273,152.857436 C53.2801273,152.154436 53.4581273,151.182436 54.1601273,150.696436 L59.7551273,146.827436 C60.4581273,146.341436 61.4301273,146.518436 61.9161273,147.220436 C62.4011273,147.924436 62.2241273,148.895436 61.5211273,149.382436" id="Fill-80" fill="#F3C7AC"></path>
                <path d="M56.9001273,148.404436 L55.1611273,152.078436 C54.9421273,152.539436 54.3861273,152.738436 53.9251273,152.519436 C53.4631273,152.301436 53.2651273,151.745436 53.4831273,151.284436 L55.2231273,147.609436 C55.4411273,147.148436 55.9971273,146.950436 56.4591273,147.168436 C56.9191273,147.386436 57.1181273,147.942436 56.9001273,148.404436" id="Fill-81" fill="#F3C7AC"></path>
                <path d="M332.180127,148.500436 L337.776127,152.370436 C338.478127,152.855436 339.451127,152.678436 339.936127,151.975436 C340.421127,151.273436 340.245127,150.301436 339.542127,149.815436 L333.947127,145.946436 C333.245127,145.460436 332.272127,145.637436 331.787127,146.340436 C331.300127,147.042436 331.478127,148.014436 332.180127,148.500436" id="Fill-103" fill="#F3C7AC"></path>
                <path d="M336.802127,147.522436 L338.542127,151.197436 C338.759127,151.658436 339.316127,151.856436 339.777127,151.638436 C340.239127,151.420436 340.437127,150.864436 340.218127,150.402436 L338.479127,146.728436 C338.261127,146.267436 337.705127,146.068436 337.244127,146.287436 C336.783127,146.506436 336.584127,147.061436 336.802127,147.522436" id="Fill-104" fill="#F3C7AC"></path>
                <path d="M294.580127,119.651436 C291.825127,125.463436 284.880127,127.942436 279.069127,125.187436 C273.257127,122.433436 270.779127,115.489436 273.533127,109.677436 C276.288127,103.865436 283.232127,101.386436 289.043127,104.141436 C294.855127,106.895436 297.334127,113.840436 294.580127,119.651436" id="Fill-114" fill="#FFFFFE"></path>
                <path d="M331.328127,141.839436 L301.507127,127.706436 C299.188127,126.607436 298.189127,123.810436 299.289127,121.490436 C300.387127,119.171436 303.185127,118.173436 305.504127,119.272436 L335.325127,133.404436 C337.644127,134.504436 338.642127,137.300436 337.543127,139.620436 C336.444127,141.939436 333.647127,142.938436 331.328127,141.839436" id="Fill-115" fill="#FFFFFE"></path>
                <path d="M320.500127,159.209436 L269.907127,135.231436 C267.587127,134.132436 266.588127,131.335436 267.688127,129.015436 C268.788127,126.696436 271.584127,125.698436 273.904127,126.797436 L324.498127,150.774436 C326.817127,151.874436 327.815127,154.671436 326.716127,156.990436 C325.617127,159.309436 322.820127,160.307436 320.500127,159.209436" id="Fill-116" fill="#FFFFFE"></path>
                <polyline id="Fill-121" fill="#2E5A99" points="260.495127 22.0284361 257.456127 22.0284361 260.495127 20.9144361 260.495127 22.0284361"></polyline>
                <path d="M337.248127,27.7554361 C337.049127,27.5314361 336.844127,27.3124361 336.634127,27.0994361 C336.775127,27.1394361 336.914127,27.1804361 337.053127,27.2244361 L337.248127,27.7554361" id="Fill-123" fill="#BAB4B1"></path>
                <path d="M288.247127,41.5474361 C287.375127,41.2844361 286.667127,40.6434361 286.324127,39.8124361 C286.968127,39.8854361 287.622127,39.9234361 288.286127,39.9234361 C289.114127,39.9234361 289.786127,39.2524361 289.786127,38.4234361 C289.786127,37.5944361 289.114127,36.9234361 288.286127,36.9234361 C287.759127,36.9234361 287.239127,36.8944361 286.727127,36.8384361 C287.252127,36.1614361 288.060127,35.7154361 288.974127,35.6724361 C288.700127,35.5904361 288.416127,35.5334361 288.115127,35.5334361 C287.736127,35.5334361 287.374127,35.6034361 287.041127,35.7304361 C287.386127,35.5924361 287.762127,35.5174361 288.157127,35.5174361 C289.822127,35.5174361 291.172127,36.8674361 291.172127,38.5334361 C291.172127,40.1684361 289.871127,41.4994361 288.247127,41.5474361" id="Fill-125" fill="#949693"></path>
                <path d="M288.115127,41.5644361 C286.844127,41.5644361 285.757127,40.7784361 285.313127,39.6654361 C285.646127,39.7244361 285.984127,39.7734361 286.324127,39.8124361 C286.667127,40.6434361 287.375127,41.2844361 288.247127,41.5474361 C288.250127,41.5484361 288.253127,41.5494361 288.256127,41.5504361 L288.115127,41.5644361 M286.727127,36.8384361 C286.393127,36.8014361 286.063127,36.7534361 285.737127,36.6934361 C286.073127,36.2644361 286.523127,35.9274361 287.041127,35.7304361 C287.374127,35.6034361 287.736127,35.5334361 288.115127,35.5334361 C288.416127,35.5334361 288.700127,35.5904361 288.974127,35.6724361 C288.060127,35.7154361 287.252127,36.1614361 286.727127,36.8384361" id="Fill-126" fill="#80827F"></path>
                <path d="M305.499127,41.3874361 L265.288127,57.6624361 C263.417127,58.4194361 261.269127,57.5084361 260.512127,55.6394361 C259.756127,53.7704361 260.667127,51.6214361 262.536127,50.8644361 L302.748127,34.5894361 C304.617127,33.8334361 306.765127,34.7434361 307.522127,36.6124361 C308.279127,38.4824361 307.369127,40.6304361 305.499127,41.3874361" id="Fill-131" fill="#FFFFFE"></path>
                <path d="M260.877127,206.506436 C260.465127,206.506436 260.127127,206.168436 260.127127,205.756436 L260.127127,203.788436 L261.627127,203.678436 L261.627127,205.756436 C261.627127,206.168436 261.290127,206.506436 260.877127,206.506436" id="Fill-134" fill="#B9BBB7"></path>
                <g id="Group-3" transform="translate(291.282127, 38.861418) rotate(-22.000000) translate(-291.282127, -38.861418) translate(238.282127, 18.361418)">
                    <g id="Group-2" transform="translate(0.000000, 0.777778)">
                        <rect id="Rectangle-8" fill="#0362C8" x="-1.42108547e-14" y="-5.68434189e-14" width="106" height="40" rx="8"></rect>
                        <rect id="Rectangle" fill="#9BCAFF" x="39.2040816" y="8.22222222" width="56" height="5.2173913" rx="2.60869565"></rect>
                        <rect id="Rectangle" fill="#9BCAFF" x="39.2040816" y="17.5700483" width="50" height="5.2173913" rx="2.60869565"></rect>
                        <rect id="Rectangle" fill="#9BCAFF" x="39" y="26.9661836" width="50" height="5.2173913" rx="2.60869565"></rect>
                    </g>
                    <path d="M25.4765901,15.5505504 L25.4765901,15.5505504 C24.7787101,14.8164832 23.6363317,14.8164832 22.9393166,15.5505504 L16.3825314,22.4464153 L13.0608996,18.9525468 C12.3630197,18.2184796 11.2206413,18.2184796 10.5227614,18.9525468 C9.82574621,19.6866139 9.82574621,20.8873186 10.5227614,21.6222953 L15.1130298,26.4505833 C15.4624022,26.8171621 15.9224668,27.0009063 16.3825314,27 C16.842596,27.0009063 17.3026606,26.8171621 17.6520329,26.4505833 L25.4765901,18.2202989 C26.17447,17.4853221 26.17447,16.2846175 25.4765901,15.5505504" id="Fill-61" fill="#FFFFFF"></path>
                </g>
                <g id="Group-3" transform="translate(72.899605, 143.978367) rotate(-17.000000) translate(-72.899605, -143.978367) translate(6.299605, 112.478367)">
                    <g id="Group-2" transform="translate(-0.000000, -0.000000)">
                        <rect id="Rectangle-8" fill="#0362C8" x="-8.98519919e-14" y="-6.91910563e-16" width="133.2" height="63" rx="12"></rect>
                        <g id="Deluxe-Auto-Detailin" transform="translate(13.140540, 24.431660)" fill="#9BCAFF" fill-rule="nonzero">
                            <path d="M2.16216,5.61834 C3.86568,5.61834 5.05323,4.53726 5.05323,2.88288 C5.05323,1.24488 3.86568,0.15561 2.15397,0.15561 L9.33671065e-14,0.15561 L9.33671065e-14,5.61834 L2.16216,5.61834 Z M2.15397,4.59459 L1.16298,4.59459 L1.16298,1.17936 L2.16216,1.17936 C3.276,1.17936 3.86568,1.92465 3.86568,2.88288 C3.86568,3.81654 3.23505,4.59459 2.15397,4.59459 Z" id="Shape"></path>
                            <path d="M7.71498,5.71662 C8.32923,5.71662 8.95167,5.52825 9.34479,5.16789 L8.87796,4.47993 C8.62407,4.72563 8.16543,4.86486 7.82964,4.86486 C7.15806,4.86486 6.76494,4.46355 6.69123,3.98034 L9.63144,3.98034 L9.63144,3.73464 C9.63144,2.44881 8.83701,1.56429 7.64946,1.56429 C6.45372,1.56429 5.60196,2.48976 5.60196,3.63636 C5.60196,4.90581 6.51105,5.71662 7.71498,5.71662 Z M8.63226,3.25962 L6.68304,3.25962 C6.72399,2.8665 7.00245,2.41605 7.64946,2.41605 C8.33742,2.41605 8.5995,2.88288 8.63226,3.25962 Z" id="Shape"></path>
                            <polygon id="Path" points="11.42505 5.61834 11.42505 0.15561 10.38492 0.15561 10.38492 5.61834"></polygon>
                            <path d="M16.16706,5.61834 L16.16706,1.66257 L15.12693,1.66257 L15.12693,4.3407 C14.94675,4.57002 14.62734,4.79115 14.22603,4.79115 C13.78377,4.79115 13.49712,4.61097 13.49712,4.06224 L13.49712,1.66257 L12.45699,1.66257 L12.45699,4.47174 C12.45699,5.2416 12.86649,5.71662 13.73463,5.71662 C14.38164,5.71662 14.85666,5.41359 15.12693,5.11875 L15.12693,5.61834 L16.16706,5.61834 Z" id="Path"></path>
                            <polygon id="Path" points="20.81079 5.61834 19.40211 3.58722 20.7207 1.66257 19.55772 1.66257 18.74691 2.87469 17.92791 1.66257 16.76493 1.66257 18.09171 3.58722 16.68303 5.61834 17.83782 5.61834 18.74691 4.28337 19.64781 5.61834"></polygon>
                            <path d="M23.18589,5.71662 C23.80014,5.71662 24.42258,5.52825 24.8157,5.16789 L24.34887,4.47993 C24.09498,4.72563 23.63634,4.86486 23.30055,4.86486 C22.62897,4.86486 22.23585,4.46355 22.16214,3.98034 L25.10235,3.98034 L25.10235,3.73464 C25.10235,2.44881 24.30792,1.56429 23.12037,1.56429 C21.92463,1.56429 21.07287,2.48976 21.07287,3.63636 C21.07287,4.90581 21.98196,5.71662 23.18589,5.71662 Z M24.10317,3.25962 L22.15395,3.25962 C22.1949,2.8665 22.47336,2.41605 23.12037,2.41605 C23.80833,2.41605 24.07041,2.88288 24.10317,3.25962 Z" id="Shape"></path>
                            <path d="M33.07941,5.61834 L30.97458,0.15561 L29.51676,0.15561 L27.41193,5.61834 L28.73052,5.61834 L29.0745,4.69287 L31.41684,4.69287 L31.76082,5.61834 L33.07941,5.61834 Z M31.09743,3.66912 L29.39391,3.66912 L30.24567,1.31859 L31.09743,3.66912 Z" id="Shape"></path>
                            <path d="M37.27269,5.61834 L37.27269,1.66257 L36.23256,1.66257 L36.23256,4.3407 C36.05238,4.57002 35.73297,4.79115 35.33166,4.79115 C34.8894,4.79115 34.60275,4.61097 34.60275,4.06224 L34.60275,1.66257 L33.56262,1.66257 L33.56262,4.47174 C33.56262,5.2416 33.97212,5.71662 34.84026,5.71662 C35.48727,5.71662 35.96229,5.41359 36.23256,5.11875 L36.23256,5.61834 L37.27269,5.61834 Z" id="Path"></path>
                            <path d="M39.63141,5.71662 C40.06548,5.71662 40.34394,5.60196 40.49955,5.46273 L40.27842,4.6683 C40.22109,4.73382 40.07367,4.79115 39.91806,4.79115 C39.68874,4.79115 39.5577,4.60278 39.5577,4.34889 L39.5577,2.57166 L40.36032,2.57166 L40.36032,1.66257 L39.5577,1.66257 L39.5577,0.58149 L38.51757,0.58149 L38.51757,1.66257 L37.86237,1.66257 L37.86237,2.57166 L38.51757,2.57166 L38.51757,4.62735 C38.51757,5.33988 38.9025,5.71662 39.63141,5.71662 Z" id="Path"></path>
                            <path d="M42.90741,5.71662 C44.21781,5.71662 45.00405,4.75839 45.00405,3.63636 C45.00405,2.51433 44.21781,1.56429 42.90741,1.56429 C41.6052,1.56429 40.81896,2.51433 40.81896,3.63636 C40.81896,4.75839 41.6052,5.71662 42.90741,5.71662 Z M42.90741,4.79115 C42.2604,4.79115 41.90004,4.2588 41.90004,3.63636 C41.90004,3.02211 42.2604,2.48976 42.90741,2.48976 C43.56261,2.48976 43.92297,3.02211 43.92297,3.63636 C43.92297,4.2588 43.56261,4.79115 42.90741,4.79115 Z" id="Shape"></path>
                            <path d="M50.07366,5.61834 C51.77718,5.61834 52.96473,4.53726 52.96473,2.88288 C52.96473,1.24488 51.77718,0.15561 50.06547,0.15561 L47.9115,0.15561 L47.9115,5.61834 L50.07366,5.61834 Z M50.06547,4.59459 L49.07448,4.59459 L49.07448,1.17936 L50.07366,1.17936 C51.1875,1.17936 51.77718,1.92465 51.77718,2.88288 C51.77718,3.81654 51.14655,4.59459 50.06547,4.59459 Z" id="Shape"></path>
                            <path d="M55.62648,5.71662 C56.24073,5.71662 56.86317,5.52825 57.25629,5.16789 L56.78946,4.47993 C56.53557,4.72563 56.07693,4.86486 55.74114,4.86486 C55.06956,4.86486 54.67644,4.46355 54.60273,3.98034 L57.54294,3.98034 L57.54294,3.73464 C57.54294,2.44881 56.74851,1.56429 55.56096,1.56429 C54.36522,1.56429 53.51346,2.48976 53.51346,3.63636 C53.51346,4.90581 54.42255,5.71662 55.62648,5.71662 Z M56.54376,3.25962 L54.59454,3.25962 C54.63549,2.8665 54.91395,2.41605 55.56096,2.41605 C56.24892,2.41605 56.511,2.88288 56.54376,3.25962 Z" id="Shape"></path>
                            <path d="M59.6232,5.71662 C60.05727,5.71662 60.33573,5.60196 60.49134,5.46273 L60.27021,4.6683 C60.21288,4.73382 60.06546,4.79115 59.90985,4.79115 C59.68053,4.79115 59.54949,4.60278 59.54949,4.34889 L59.54949,2.57166 L60.35211,2.57166 L60.35211,1.66257 L59.54949,1.66257 L59.54949,0.58149 L58.50936,0.58149 L58.50936,1.66257 L57.85416,1.66257 L57.85416,2.57166 L58.50936,2.57166 L58.50936,4.62735 C58.50936,5.33988 58.89429,5.71662 59.6232,5.71662 Z" id="Path"></path>
                            <path d="M64.48806,5.61834 L64.48806,3.06306 C64.48806,1.92465 63.66087,1.56429 62.75178,1.56429 C62.12934,1.56429 61.5069,1.75266 61.02369,2.18673 L61.43319,2.91564 C61.76079,2.61261 62.15391,2.44881 62.5716,2.44881 C63.09576,2.44881 63.43974,2.71089 63.43974,3.1122 L63.43974,3.61179 C63.17766,3.30057 62.71902,3.12858 62.18667,3.12858 C61.55604,3.12858 60.81894,3.47256 60.81894,4.40622 C60.81894,5.29074 61.55604,5.71662 62.18667,5.71662 C62.70264,5.71662 63.16947,5.52825 63.43974,5.20065 L63.43974,5.61834 L64.48806,5.61834 Z M62.60436,5.01228 C62.19486,5.01228 61.85907,4.79934 61.85907,4.4226 C61.85907,4.04586 62.19486,3.82473 62.60436,3.82473 C62.94015,3.82473 63.26775,3.94758 63.43974,4.1769 L63.43974,4.6683 C63.26775,4.89762 62.94015,5.01228 62.60436,5.01228 Z" id="Shape"></path>
                            <path d="M66.02778,1.23669 C66.37176,1.23669 66.65022,0.95823 66.65022,0.61425 C66.65022,0.27027 66.37176,-1.92892668e-13 66.02778,-1.92892668e-13 C65.69199,-1.92892668e-13 65.41353,0.27027 65.41353,0.61425 C65.41353,0.95823 65.69199,1.23669 66.02778,1.23669 Z M66.55194,5.61834 L66.55194,1.66257 L65.51181,1.66257 L65.51181,5.61834 L66.55194,5.61834 Z" id="Shape"></path>
                            <polygon id="Path" points="68.62401 5.61834 68.62401 0.15561 67.58388 0.15561 67.58388 5.61834"></polygon>
                            <path d="M70.17192,1.23669 C70.5159,1.23669 70.79436,0.95823 70.79436,0.61425 C70.79436,0.27027 70.5159,-1.73676863e-13 70.17192,-1.73676863e-13 C69.83613,-1.73676863e-13 69.55767,0.27027 69.55767,0.61425 C69.55767,0.95823 69.83613,1.23669 70.17192,1.23669 Z M70.69608,5.61834 L70.69608,1.66257 L69.65595,1.66257 L69.65595,5.61834 L70.69608,5.61834 Z" id="Shape"></path>
                            <path d="M75.44628,5.61834 L75.44628,2.82555 C75.44628,2.05569 75.02859,1.56429 74.15226,1.56429 C73.51344,1.56429 73.02204,1.87551 72.76815,2.17035 L72.76815,1.66257 L71.72802,1.66257 L71.72802,5.61834 L72.76815,5.61834 L72.76815,2.9484 C72.94833,2.71908 73.25955,2.48976 73.66905,2.48976 C74.11131,2.48976 74.39796,2.67813 74.39796,3.22686 L74.39796,5.61834 L75.44628,5.61834 Z" id="Path"></path>
                            <path d="M78.09165,7.22358 C79.06626,7.22358 80.22924,6.85503 80.22924,5.35626 L80.22924,1.66257 L79.18911,1.66257 L79.18911,2.17035 C78.8697,1.76085 78.43563,1.56429 77.96061,1.56429 C76.96143,1.56429 76.21614,2.28501 76.21614,3.57903 C76.21614,4.89762 76.97781,5.58558 77.96061,5.58558 C78.45201,5.58558 78.87789,5.36445 79.18911,4.97133 L79.18911,5.35626 C79.18911,6.15888 78.59124,6.37182 78.09165,6.37182 C77.60025,6.37182 77.17437,6.23259 76.85496,5.88861 L76.38813,6.6339 C76.88772,7.06797 77.42007,7.22358 78.09165,7.22358 Z M78.2964,4.6683 C77.69853,4.6683 77.28903,4.2588 77.28903,3.57903 C77.28903,2.89926 77.69853,2.48976 78.2964,2.48976 C78.63219,2.48976 79.00893,2.67813 79.18911,2.93202 L79.18911,4.21785 C79.00893,4.47174 78.63219,4.6683 78.2964,4.6683 Z" id="Shape"></path>
                        </g>
                        <g id="10:30-AM" transform="translate(12.710880, 11.365840)" fill="#FFFFFF" fill-rule="nonzero">
                            <polygon id="Path" points="3.36672 6.82416 3.36672 0.1008 2.1168 0.1008 2.11091356e-13 2.22768 0.81648 3.08448 1.93536 1.94544 1.93536 6.82416"></polygon>
                            <path d="M7.1568,6.94512 C9.08208,6.94512 9.93888,5.20128 9.93888,3.46752 C9.93888,1.73376 9.08208,4.70551415e-14 7.1568,4.70551415e-14 C5.23152,4.70551415e-14 4.37472,1.73376 4.37472,3.46752 C4.37472,5.20128 5.23152,6.94512 7.1568,6.94512 Z M7.1568,5.67504 C6.1992,5.67504 5.83632,4.70736 5.83632,3.46752 C5.83632,2.22768 6.1992,1.27008 7.1568,1.27008 C8.12448,1.27008 8.47728,2.22768 8.47728,3.46752 C8.47728,4.70736 8.1144,5.67504 7.1568,5.67504 Z" id="Shape"></path>
                            <path d="M11.57184,3.51792 C12.01536,3.51792 12.38832,3.14496 12.38832,2.70144 C12.38832,2.25792 12.01536,1.88496 11.57184,1.88496 C11.12832,1.88496 10.75536,2.25792 10.75536,2.70144 C10.75536,3.14496 11.12832,3.51792 11.57184,3.51792 Z M11.57184,6.93504 C12.01536,6.93504 12.38832,6.56208 12.38832,6.11856 C12.38832,5.67504 12.01536,5.30208 11.57184,5.30208 C11.12832,5.30208 10.75536,5.67504 10.75536,6.11856 C10.75536,6.56208 11.12832,6.93504 11.57184,6.93504 Z" id="Shape"></path>
                            <path d="M15.61392,6.94512 C17.22672,6.94512 18.26496,6.12864 18.26496,4.96944 C18.26496,3.96144 17.37792,3.4272 16.69248,3.35664 C17.4384,3.2256 18.16416,2.6712 18.16416,1.82448 C18.16416,0.7056 17.19648,-1.52796415e-14 15.624,-1.52796415e-14 C14.44464,-1.52796415e-14 13.59792,0.4536 13.0536,1.06848 L13.76928,1.9656 C14.24304,1.512 14.82768,1.27008 15.48288,1.27008 C16.1784,1.27008 16.7328,1.53216 16.7328,2.0664 C16.7328,2.56032 16.2288,2.78208 15.48288,2.78208 C15.23088,2.78208 14.7672,2.78208 14.64624,2.772 L14.64624,4.06224 C14.74704,4.05216 15.20064,4.04208 15.48288,4.04208 C16.42032,4.04208 16.8336,4.284 16.8336,4.81824 C16.8336,5.32224 16.38,5.67504 15.56352,5.67504 C14.90832,5.67504 14.17248,5.3928 13.71888,4.90896 L12.96288,5.86656 C13.4568,6.47136 14.38416,6.94512 15.61392,6.94512 Z" id="Path"></path>
                            <path d="M21.80304,6.94512 C23.72832,6.94512 24.58512,5.20128 24.58512,3.46752 C24.58512,1.73376 23.72832,-3.14455292e-14 21.80304,-3.14455292e-14 C19.87776,-3.14455292e-14 19.02096,1.73376 19.02096,3.46752 C19.02096,5.20128 19.87776,6.94512 21.80304,6.94512 Z M21.80304,5.67504 C20.84544,5.67504 20.48256,4.70736 20.48256,3.46752 C20.48256,2.22768 20.84544,1.27008 21.80304,1.27008 C22.77072,1.27008 23.12352,2.22768 23.12352,3.46752 C23.12352,4.70736 22.76064,5.67504 21.80304,5.67504 Z" id="Shape"></path>
                            <path d="M34.45344,6.82416 L31.86288,0.1008 L30.06864,0.1008 L27.47808,6.82416 L29.10096,6.82416 L29.52432,5.68512 L32.4072,5.68512 L32.83056,6.82416 L34.45344,6.82416 Z M32.01408,4.42512 L29.91744,4.42512 L30.96576,1.53216 L32.01408,4.42512 Z" id="Shape"></path>
                            <polygon id="Path" points="42.36624 6.82416 42.36624 0.1008 40.35024 0.1008 38.71728 4.30416 37.08432 0.1008 35.0784 0.1008 35.0784 6.82416 36.50976 6.82416 36.50976 1.97568 38.4048 6.82416 39.02976 6.82416 40.9248 1.97568 40.9248 6.82416"></polygon>
                        </g>
                        <rect id="Rectangle" fill="#9BCAFF" x="12.6" y="37.8" width="101.43" height="6.3" rx="3.15"></rect>
                        <rect id="Rectangle" fill="#9BCAFF" x="12.6" y="47.88" width="63" height="6.3" rx="3.15"></rect>
                    </g>
                </g>
                <g id="Group-4" transform="translate(200.319683, 224.167285) rotate(-7.000000) translate(-200.319683, -224.167285) translate(148.319683, 205.167285)">
                    <rect id="Rectangle-8" fill="#63C492" x="1.78723911e-13" y="8.88072414e-14" width="104" height="38" rx="6"></rect>
                    <path d="M12.1904192,15.4444444 L12.1904192,11.9920635 L14.8562874,15.4444444 L16.0047904,15.4444444 L16.0047904,10.1507937 L14.8143713,10.1507937 L14.8143713,13.4761905 L12.2239521,10.1507937 L11,10.1507937 L11,15.4444444 L12.1904192,15.4444444 Z M18.9892216,15.5396825 C19.6179641,15.5396825 20.2550898,15.3571429 20.657485,15.0079365 L20.1796407,14.3412698 C19.9197605,14.5793651 19.4502994,14.7142857 19.1065868,14.7142857 C18.4191617,14.7142857 18.0167665,14.3253968 17.9413174,13.8571429 L20.9508982,13.8571429 L20.9508982,13.6190476 C20.9508982,12.3730159 20.1377246,11.515873 18.9221557,11.515873 C17.6982036,11.515873 16.8263473,12.4126984 16.8263473,13.5238095 C16.8263473,14.7539683 17.7568862,15.5396825 18.9892216,15.5396825 Z M19.9281437,13.1587302 L17.9329341,13.1587302 C17.9748503,12.7777778 18.2598802,12.3412698 18.9221557,12.3412698 C19.6263473,12.3412698 19.8946108,12.7936508 19.9281437,13.1587302 Z M23.5664671,15.4444444 L24.4215569,12.8333333 L25.2766467,15.4444444 L26.4167665,15.4444444 L27.6491018,11.6111111 L26.5341317,11.6111111 L25.7796407,14.1904762 L24.891018,11.6111111 L23.9437126,11.6111111 L23.0550898,14.1904762 L22.3005988,11.6111111 L21.194012,11.6111111 L22.4263473,15.4444444 L23.5664671,15.4444444 Z M33.0143713,15.5396825 C34.6994012,15.5396825 35.9317365,14.3968254 35.9317365,12.8015873 C35.9317365,11.2063492 34.6994012,10.0634921 33.0143713,10.0634921 C31.3209581,10.0634921 30.0886228,11.2063492 30.0886228,12.8015873 C30.0886228,14.3968254 31.3209581,15.5396825 33.0143713,15.5396825 Z M33.0143713,14.5396825 C31.9748503,14.5396825 31.3125749,13.7857143 31.3125749,12.8015873 C31.3125749,11.8095238 31.9748503,11.0634921 33.0143713,11.0634921 C34.045509,11.0634921 34.7077844,11.8095238 34.7077844,12.8015873 C34.7077844,13.7857143 34.045509,14.5396825 33.0143713,14.5396825 Z M37.8095808,15.4444444 L37.8095808,12.8571429 C37.994012,12.6349206 38.3125749,12.4126984 38.7317365,12.4126984 C39.1844311,12.4126984 39.4778443,12.5952381 39.4778443,13.1269841 L39.4778443,15.4444444 L40.5508982,15.4444444 L40.5508982,12.7380952 C40.5508982,11.9920635 40.1233533,11.515873 39.2263473,11.515873 C38.5724551,11.515873 38.0694611,11.8174603 37.8095808,12.1031746 L37.8095808,11.6111111 L36.7449102,11.6111111 L36.7449102,15.4444444 L37.8095808,15.4444444 Z M42.6634731,15.4444444 L42.6634731,10.1507937 L41.5988024,10.1507937 L41.5988024,15.4444444 L42.6634731,15.4444444 Z M44.2479042,11.1984127 C44.6,11.1984127 44.8850299,10.9285714 44.8850299,10.5952381 C44.8850299,10.2619048 44.6,10 44.2479042,10 C43.9041916,10 43.6191617,10.2619048 43.6191617,10.5952381 C43.6191617,10.9285714 43.9041916,11.1984127 44.2479042,11.1984127 Z M44.7844311,15.4444444 L44.7844311,11.6111111 L43.7197605,11.6111111 L43.7197605,15.4444444 L44.7844311,15.4444444 Z M46.9053892,15.4444444 L46.9053892,12.8571429 C47.0898204,12.6349206 47.4083832,12.4126984 47.8275449,12.4126984 C48.2802395,12.4126984 48.5736527,12.5952381 48.5736527,13.1269841 L48.5736527,15.4444444 L49.6467066,15.4444444 L49.6467066,12.7380952 C49.6467066,11.9920635 49.2191617,11.515873 48.3221557,11.515873 C47.6682635,11.515873 47.1652695,11.8174603 46.9053892,12.1031746 L46.9053892,11.6111111 L45.8407186,11.6111111 L45.8407186,15.4444444 L46.9053892,15.4444444 Z M52.5976048,15.5396825 C53.2263473,15.5396825 53.8634731,15.3571429 54.2658683,15.0079365 L53.788024,14.3412698 C53.5281437,14.5793651 53.0586826,14.7142857 52.7149701,14.7142857 C52.0275449,14.7142857 51.6251497,14.3253968 51.5497006,13.8571429 L54.5592814,13.8571429 L54.5592814,13.6190476 C54.5592814,12.3730159 53.7461078,11.515873 52.5305389,11.515873 C51.3065868,11.515873 50.4347305,12.4126984 50.4347305,13.5238095 C50.4347305,14.7539683 51.3652695,15.5396825 52.5976048,15.5396825 Z M53.5365269,13.1587302 L51.5413174,13.1587302 C51.5832335,12.7777778 51.8682635,12.3412698 52.5305389,12.3412698 C53.2347305,12.3412698 53.502994,12.7936508 53.5365269,13.1587302 Z M60.5449102,15.4444444 C61.6179641,15.4444444 62.1712575,14.8095238 62.1712575,14.0079365 C62.1712575,13.3492063 61.7017964,12.8015873 61.0982036,12.7142857 C61.6263473,12.6111111 62.0622754,12.1587302 62.0622754,11.5 C62.0622754,10.7936508 61.5173653,10.1507937 60.4526946,10.1507937 L57.5101796,10.1507937 L57.5101796,15.4444444 L60.5449102,15.4444444 Z M60.1928144,12.2539683 L58.7005988,12.2539683 L58.7005988,11.1428571 L60.1928144,11.1428571 C60.5952096,11.1428571 60.8467066,11.3730159 60.8467066,11.6984127 C60.8467066,12.0396825 60.5952096,12.2539683 60.1928144,12.2539683 Z M60.2431138,14.452381 L58.7005988,14.452381 L58.7005988,13.2460317 L60.2431138,13.2460317 C60.7041916,13.2460317 60.9556886,13.515873 60.9556886,13.8492063 C60.9556886,14.2301587 60.6874251,14.452381 60.2431138,14.452381 Z M64.9209581,15.5396825 C66.2622754,15.5396825 67.0670659,14.6111111 67.0670659,13.5238095 C67.0670659,12.4365079 66.2622754,11.515873 64.9209581,11.515873 C63.588024,11.515873 62.7832335,12.4365079 62.7832335,13.5238095 C62.7832335,14.6111111 63.588024,15.5396825 64.9209581,15.5396825 Z M64.9209581,14.6428571 C64.2586826,14.6428571 63.8898204,14.1269841 63.8898204,13.5238095 C63.8898204,12.9285714 64.2586826,12.4126984 64.9209581,12.4126984 C65.5916168,12.4126984 65.960479,12.9285714 65.960479,13.5238095 C65.960479,14.1269841 65.5916168,14.6428571 64.9209581,14.6428571 Z M69.7413174,15.5396825 C71.0826347,15.5396825 71.8874251,14.6111111 71.8874251,13.5238095 C71.8874251,12.4365079 71.0826347,11.515873 69.7413174,11.515873 C68.4083832,11.515873 67.6035928,12.4365079 67.6035928,13.5238095 C67.6035928,14.6111111 68.4083832,15.5396825 69.7413174,15.5396825 Z M69.7413174,14.6428571 C69.0790419,14.6428571 68.7101796,14.1269841 68.7101796,13.5238095 C68.7101796,12.9285714 69.0790419,12.4126984 69.7413174,12.4126984 C70.411976,12.4126984 70.7808383,12.9285714 70.7808383,13.5238095 C70.7808383,14.1269841 70.411976,14.6428571 69.7413174,14.6428571 Z M73.748503,15.4444444 L73.748503,14.4603175 L74.2347305,13.968254 L75.3077844,15.4444444 L76.6407186,15.4444444 L74.9892216,13.3492063 L76.5904192,11.6111111 L75.2826347,11.6111111 L73.748503,13.3174603 L73.748503,10.1507937 L72.6838323,10.1507937 L72.6838323,15.4444444 L73.748503,15.4444444 Z M77.7053892,11.1984127 C78.057485,11.1984127 78.342515,10.9285714 78.342515,10.5952381 C78.342515,10.2619048 78.057485,10 77.7053892,10 C77.3616766,10 77.0766467,10.2619048 77.0766467,10.5952381 C77.0766467,10.9285714 77.3616766,11.1984127 77.7053892,11.1984127 Z M78.2419162,15.4444444 L78.2419162,11.6111111 L77.1772455,11.6111111 L77.1772455,15.4444444 L78.2419162,15.4444444 Z M80.3628743,15.4444444 L80.3628743,12.8571429 C80.5473054,12.6349206 80.8658683,12.4126984 81.2850299,12.4126984 C81.7377246,12.4126984 82.0311377,12.5952381 82.0311377,13.1269841 L82.0311377,15.4444444 L83.1041916,15.4444444 L83.1041916,12.7380952 C83.1041916,11.9920635 82.6766467,11.515873 81.7796407,11.515873 C81.1257485,11.515873 80.6227545,11.8174603 80.3628743,12.1031746 L80.3628743,11.6111111 L79.2982036,11.6111111 L79.2982036,15.4444444 L80.3628743,15.4444444 Z M85.811976,17 C86.8095808,17 88,16.6428571 88,15.1904762 L88,11.6111111 L86.9353293,11.6111111 L86.9353293,12.1031746 C86.6083832,11.7063492 86.1640719,11.515873 85.6778443,11.515873 C84.6550898,11.515873 83.8922156,12.2142857 83.8922156,13.468254 C83.8922156,14.7460317 84.6718563,15.4126984 85.6778443,15.4126984 C86.1808383,15.4126984 86.6167665,15.1984127 86.9353293,14.8174603 L86.9353293,15.1904762 C86.9353293,15.968254 86.3233533,16.1746032 85.811976,16.1746032 C85.308982,16.1746032 84.8730539,16.0396825 84.5461078,15.7063492 L84.0682635,16.4285714 C84.5796407,16.8492063 85.1245509,17 85.811976,17 Z M86.0215569,14.5238095 C85.4095808,14.5238095 84.9904192,14.1269841 84.9904192,13.468254 C84.9904192,12.8095238 85.4095808,12.4126984 86.0215569,12.4126984 C86.3652695,12.4126984 86.7508982,12.5952381 86.9353293,12.8412698 L86.9353293,14.0873016 C86.7508982,14.3333333 86.3652695,14.5238095 86.0215569,14.5238095 Z" id="NewOnlineBooking" fill="#FFFFFF" fill-rule="nonzero"></path>
                    <rect id="Rectangle" fill="#D5FFE3" x="11" y="24" width="73" height="5" rx="2.5"></rect>
                </g>
                <g id="Group-3" transform="translate(318.389081, 131.732413) rotate(26.000000) translate(-318.389081, -131.732413) translate(264.889081, 106.732413)">
                    <g id="Group-2" transform="translate(0.460423, 0.662835)">
                        <rect id="Rectangle-8" fill="#D9DDE3" x="0" y="0" width="106" height="49" rx="11"></rect>
                        <rect id="Rectangle" fill="#FFFFFF" x="38.5395771" y="11.3371652" width="59" height="11" rx="5"></rect>
                        <rect id="Rectangle" fill="#FFFFFF" x="38.5616289" y="27.101206" width="53" height="11" rx="5"></rect>
                    </g>
                    <circle id="Oval" fill="#FFFFFF" cx="20.6006428" cy="23.9442903" r="13"></circle>
                </g>
            </g>
            <g id="Group-6" transform="translate(206.282127, 112.361418)">
                <path d="M396.114362,222 C367.908498,222 307.115118,222 276.597397,222 C262.882053,222 191.385861,222 178.312639,222 C116.974933,222 131.500471,202.214241 131.500471,185.5 C131.500471,165.334418 196.461029,149 276.597397,149 C356.733765,149 421.694323,165.334418 421.694323,185.5 C421.694323,197.986077 431.737752,222 396.114362,222 Z" id="Fill-77" fill="#000000" opacity="0.144763765"></path>
                <path d="M119,206 C119,211.522699 92.3597486,216 59.5,216 C26.6381023,216 0,211.522699 0,206 C0,200.475219 26.6381023,196 59.5,196 C92.3597486,196 119,200.475219 119,206" id="Fill-78" fill="#000000" opacity="0.144763765"></path>
                <g id="Group-5" transform="translate(22.000000, 0.000000)">
                    <g id="Group-1314" transform="translate(157.410092, 10.800000)">
                        <mask id="mask-2" fill="white">
                            <use xlink:href="#path-1"></use>
                        </mask>
                        <g id="Clip-1313"></g>
                        <polygon id="Fill-1312" fill="#404751" mask="url(#mask-2)" points="0.564 47.94 192.12 47.94 192.12 -0.072 0.564 -0.072"></polygon>
                    </g>
                    <path d="M169.890092,205.56 L134.430092,205.56 C130.650092,205.56 127.590092,202.068 127.590092,197.748 L127.590092,127.368 C127.590092,123.048 130.650092,119.556 134.430092,119.556 L169.890092,119.556 C173.634092,119.556 176.730092,123.048 176.730092,127.368 L176.730092,197.748 C176.730092,202.068 173.634092,205.56 169.890092,205.56 Z" id="Fill-1319" fill="#404751"></path>
                    <path d="M380.130092,197.748 C380.130092,202.032 377.070092,205.56 373.290092,205.56 L337.830092,205.56 C334.050092,205.56 330.990092,202.032 330.990092,197.748 L330.990092,127.368 C330.990092,123.048 334.050092,119.556 337.830092,119.556 L373.290092,119.556 C377.070092,119.556 380.130092,123.048 380.130092,127.368 L380.130092,197.748" id="Fill-1320" fill="#404751"></path>
                    <path d="M157.974092,58.5 C163.518092,42.948 179.610092,20.088 185.730092,17.46 C201.282092,10.728 241.062092,11.484 251.970092,10.944 L256.290092,10.944 C267.198092,11.484 306.222092,10.728 321.738092,17.46 C327.858092,20.088 343.986092,42.948 349.530092,58.5 C333.798092,58.896 270.438092,58.752 220.218092,58.608 C191.130092,58.536 166.470092,58.464 157.974092,58.5 M362.670092,62.244 C356.946092,46.368 337.578092,11.376 329.514092,7.92 C312.234092,0.432 268.674092,0.612 256.506092,0 L251.718092,0 C239.550092,0.612 195.270092,0.432 177.954092,7.92 C169.926092,11.376 150.522092,46.368 144.834092,62.244 C137.346092,64.62 122.262092,81.756 125.358092,111.744 C127.266092,129.852 134.430092,173.844 134.430092,173.844 C134.430092,173.844 143.826092,173.844 145.878092,173.844 L361.626092,173.844 C363.642092,173.844 364.794092,173.844 364.794092,173.844 C364.794092,173.844 378.402092,132.156 378.402092,111.744 C378.402092,80.424 370.158092,64.62 362.670092,62.244" id="Fill-1321" fill="#DFE4E8"></path>
                    <path d="M372.894092,173.844 C372.894092,173.844 380.346092,133.344 382.398092,111.744 C385.278092,81.108 372.030092,66.744 362.958092,62.244 C357.234092,46.368 337.866092,11.376 329.802092,7.92 C312.486092,0.432 268.962092,0.612 256.794092,0 L254.166092,0 L254.166092,10.944 L256.542092,10.944 C267.486092,11.484 306.510092,10.728 322.062092,17.46 C328.146092,20.088 344.202092,42.984 349.782092,58.608 C323.430092,58.5 288.978092,58.356 254.166092,59.148 L254.166092,173.844 L355.038092,173.844 C357.090092,173.844 372.894092,173.844 372.894092,173.844" id="Fill-1322" fill="#DFE4E8"></path>
                    <path d="M254.166092,116.208 L202.326092,116.208 C195.990092,116.208 195.990092,111.384 199.986092,102.78 L202.398092,96.12 C205.062092,88.74 210.138092,82.692 216.510092,82.692 L254.166092,82.692 L254.166092,116.208 M306.330092,116.208 L254.166092,116.208 L254.166092,82.692 L291.966092,82.692 C298.338092,82.692 303.558092,88.668 306.366092,95.904 L309.138092,102.996 C311.982092,110.268 313.818092,115.848 306.330092,116.208" id="Combined-Shape" fill="#404751"></path>
                    <path d="M184.074092,110.196 L137.742092,110.196 C131.694092,110.196 128.238092,104.688 129.894092,98.532 L131.694092,91.944 C132.990092,87.048 137.814092,83.412 142.566092,83.412 L178.602092,83.412 C183.354092,83.412 188.250092,87.048 189.726092,91.944 L191.670092,98.532 C193.470092,104.688 190.158092,110.196 184.074092,110.196" id="Fill-1325" fill="#FFFFFF"></path>
                    <path d="M377.790092,98.532 C379.626092,104.688 376.314092,110.196 370.230092,110.196 L323.898092,110.196 C317.814092,110.196 314.394092,104.688 316.050092,98.532 L317.814092,91.944 C319.146092,87.048 323.970092,83.412 328.722092,83.412 L364.758092,83.412 C369.510092,83.412 374.406092,87.048 375.846092,91.944 L377.790092,98.532" id="Fill-1329" fill="#FFFFFF"></path>
                    <g id="Group-1338" transform="translate(128.410092, 142.800000)">
                        <mask id="mask-4" fill="white">
                            <use xlink:href="#path-3"></use>
                        </mask>
                        <g id="Clip-1337"></g>
                        <path d="M48.32,31.872 L6.02,31.872 L0.332,0.732 L1.288,0.764 C3.656,16.54 6.02,31.044 6.02,31.044 C6.02,31.044 15.416,31.044 17.468,31.044 L48.32,31.044 L48.32,31.872" id="Fill-1336" mask="url(#mask-4)"></path>
                    </g>
                    <g id="Group-1341" transform="translate(330.410092, 151.800000)">
                        <mask id="mask-6" fill="white">
                            <use xlink:href="#path-5"></use>
                        </mask>
                        <g id="Clip-1340"></g>
                        <path d="M16.852,22.872 L0.58,22.872 L0.58,22.044 L18.036,22.044 L16.852,22.872 M45.892,2.532 C46.016,1.804 46.14,1.064 46.264,0.316 L48.928,0.408 L45.892,2.532" id="Fill-1339" mask="url(#mask-6)"></path>
                    </g>
                    <path d="M383.626092,151.484 C383.626092,153.896 381.938092,155.836 379.850092,155.836 L127.766092,155.836 C125.666092,155.836 123.986092,153.896 123.986092,151.484 L123.986092,131.928 C123.986092,129.528 125.666092,127.584 127.766092,127.584 L379.850092,127.584 C381.938092,127.584 383.626092,129.528 383.626092,131.928 L383.626092,151.484" id="Fill-1348" fill="#B9C3C9"></path>
                    <path d="M380.258092,147.852 C380.258092,149.412 378.618092,150.664 376.586092,150.664 L131.018092,150.664 C128.986092,150.664 127.342092,149.412 127.342092,147.852 L127.342092,135.236 C127.342092,133.692 128.986092,132.436 131.018092,132.436 L376.586092,132.436 C378.618092,132.436 380.258092,133.692 380.258092,135.236 L380.258092,147.852" id="Fill-1349" fill="#DFE4E8"></path>
                    <path d="M118.670092,107.176 C115.946092,108.132 99.3420917,126.684 90.7020917,127.348 C82.0580917,128.02 62.2420917,116.704 59.8580917,111.944 C57.4780917,107.176 67.6420917,99.012 67.6420917,99.012 C75.7420917,105.2 89.4540917,112.848 91.1740917,113.536 C92.3700917,114.012 110.522092,104.14 113.382092,101.28 C113.382092,101.28 115.698092,95.804 116.422092,94.912 L121.058092,90.748 C121.058092,90.748 124.930092,87.944 125.106092,88.84 C125.282092,89.732 125.342092,89.732 123.914092,90.624 C122.490092,91.512 120.494092,95.208 120.494092,95.208 C120.494092,95.208 125.938092,88.512 126.834092,89.044 C127.726092,89.584 125.342092,92.404 124.634092,93.128 C123.914092,93.836 123.306092,98.952 123.206092,99.912 C122.490092,106.872 119.686092,106.82 118.670092,107.176" id="Fill-1350" fill="#EEA173"></path>
                    <path d="M64.6660917,120.076 L75.9860917,126.28 C75.9860917,126.28 82.8580917,114.456 84.5260917,111.468 C84.8620917,110.872 65.3340917,95.504 65.3340917,95.504 L64.6660917,120.076" id="Fill-1351" fill="#DD3E5D"></path>
                    <path d="M72.3180917,98.5 C76.3180917,100.56 87.1860917,108.944 87.1860917,108.944 L83.6380917,112.84 C83.6380917,112.84 63.9980917,100.44 63.9980917,99.756 C63.9980917,99.068 72.3180917,98.5 72.3180917,98.5" id="Fill-1352" fill="#FF4D60"></path>
                    <path d="M16.5060917,176.952 C11.6020917,179.132 3.17009165,178.616 1.54609165,181.336 C-0.0939083482,184.06 -1.12590835,184.796 2.14209165,189.708 C5.40609165,194.6 3.41409165,201.824 7.21809165,206.724 C11.0300917,211.62 22.9140917,209.96 24.2420917,208.512 C27.6060917,204.864 21.1500917,201.88 20.0580917,198.056 C18.9700917,194.256 20.3220917,195.46 23.5820917,190.556 C26.8420917,185.664 16.5060917,176.952 16.5060917,176.952" id="Fill-1353" fill="#0A0B09"></path>
                    <path d="M51.8580917,185.588 C49.7060917,191.348 44.0460917,202.396 50.8340917,203.456 C57.8300917,204.536 53.3420917,201.044 61.2580917,203.928 C69.1700917,206.812 71.7060917,205.936 77.7420917,204.536 C82.4220917,203.46 81.3180917,197.232 73.2340917,196.296 C67.2380917,195.612 66.2580917,191.876 62.6500917,188.288 C59.0580917,184.684 51.8580917,185.588 51.8580917,185.588" id="Fill-1354" fill="#0A0B09"></path>
                    <path d="M26.4340917,144.444 C36.3580917,143.676 75.4500917,131.092 83.8580917,134.148 C92.2580917,137.204 93.2780917,146.164 91.1380917,157.268 C90.5540917,160.28 70.1700917,193.92 70.1700917,193.92 C70.1700917,193.92 54.5620917,191.06 49.2180917,191.06 C43.8660917,191.06 65.7580917,163.176 64.0340917,163.176 C32.9620917,163.176 26.4340917,144.444 26.4340917,144.444" id="Fill-1355" fill="#043591"></path>
                    <path d="M36.8340917,125.12 C24.1260917,119.232 12.4940917,131.904 12.4940917,131.904 C4.58609165,143.136 -3.83790835,160.5 6.87809165,167.892 C6.87809165,167.892 16.2580917,175.124 49.7900917,171.036 C49.7900917,171.036 27.6260917,168.148 10.9700917,176.312 C13.9860917,184.74 21.1700917,195.196 21.1700917,195.196 C21.1700917,195.196 81.6020917,183.404 85.0540917,177.912 C90.0460917,169.952 88.4940917,165.724 87.2900917,162.716 C86.0820917,159.696 72.7500917,155.148 42.7220917,139.24 C40.7020917,138.168 41.4820917,127.264 36.8340917,125.12" id="Fill-1356" fill="#003FB4"></path>
                    <path d="M67.1940917,104.392 C73.6860917,94.944 79.5020917,93.108 79.5020917,93.108 L68.9380917,74.332 C68.9380917,74.332 63.8500917,82.56 52.7700917,88.168 C50.8340917,89.148 67.1940917,104.392 67.1940917,104.392" id="Fill-1357" fill="#EEA173"></path>
                    <path d="M55.2180917,84.076 L60.3620917,81.568 C60.3620917,81.568 65.7900917,99.728 69.6500917,103.16 C69.0220917,107.924 66.3860917,111.568 66.3860917,111.568 C66.3860917,111.568 54.0500917,90.512 55.2180917,84.076" id="Fill-1358" fill="#FF4D60"></path>
                    <path d="M92.7620917,65.448 C90.5780917,57.208 67.4460917,49.952 64.5220917,62.592 C59.2260917,85.596 72.2540917,93.848 72.2540917,93.848 C75.7300917,95.24 80.9220917,96.38 84.5620917,95.288 C86.3460917,94.74 86.8260917,91.184 88.1500917,87.936 C89.7100917,87.724 91.3900917,87.296 91.2980917,86.188 C90.6260917,84.648 90.3660917,79.52 91.3420917,77.52 C92.4980917,72.336 94.9300917,73.644 92.7620917,65.448" id="Fill-1359" fill="#EEA173"></path>
                    <path d="M65.9700917,56.404 C67.9020917,54.312 73.0860917,51.644 79.1580917,52.732 C85.0380917,53.796 85.5060917,54.828 89.3580917,58.976 C92.7020917,62.6 90.7340917,61.608 90.7340917,61.608 C90.7340917,61.608 93.1180917,69.284 87.1700917,66.112 C85.8500917,65.408 83.6060917,63.54 81.2980917,65.84 C79.3260917,67.78 77.6500917,74.796 77.6500917,74.796 C77.6500917,74.796 76.7980917,75.1 76.0820917,74.228 C75.7020917,73.756 75.7900917,72.664 73.1860917,72.668 C70.0300917,72.676 71.1860917,78.772 71.0660917,79.772 C70.5460917,84.208 63.4660917,85.468 63.4660917,85.468 C63.4660917,85.468 56.1580917,85.212 55.6540917,82.168 C55.5380917,81.452 58.5700917,82.248 58.2980917,78.668 C58.0660917,75.596 57.9980917,73.544 58.0540917,71.02 C58.2660917,60.904 65.5220917,56.912 65.9700917,56.404" id="Fill-1360" fill="#212B35"></path>
                    <path d="M57.4056868,71.92 C60.0620917,71.928 79.9780917,69.796 79.9780917,69.796 C79.9780917,69.796 87.3700917,74.992 91.6180917,75.544 C95.8580917,76.112 104.178092,73.7 101.914092,71.28 C98.3900917,69.012 94.1260917,66.88 94.1260917,66.88 C94.1260917,66.88 92.3700917,56.84 90.7340917,54.96 C87.9500917,51.748 79.6860917,51.24 76.6900917,51.46 C71.3260917,51.856 65.4540917,52.168 61.3740917,58.396 C57.2820917,64.64 57.4056868,71.92 57.4056868,71.92" id="Fill-1361" fill="#003FB4"></path>
                    <path d="M60.8340917,57.156 C58.2900917,59.792 57.2540917,71.9680485 57.2540917,71.9680485 C59.4780917,71.976 71.2340917,70.992 74.9620917,70.32 C73.8900917,64.532 74.8900917,55.424 77.9500917,51.46 L76.7980917,51.388 C73.7900917,51.46 66.0060917,51.796 60.8340917,57.156" id="Fill-1362" fill="#003FB4"></path>
                    <path d="M56.9780917,83.704 C42.3500917,87.716 20.3500917,95.364 1.24609165,149.84 C1.24609165,149.84 31.9780917,154.552 39.0540917,151.724 C46.1300917,148.888 53.8740917,138.288 58.7460917,132.968 C66.2940917,124.716 68.1220917,107.676 68.1220917,107.676 L56.9780917,83.704" id="Fill-1363" fill="#FF4D60"></path>
                    <path d="M140.562092,76.544 C136.046092,76.544 131.274092,79.812 126.262092,75.292 C122.798092,72.176 122.118092,92.86 120.614092,97.38 C119.102092,101.9 118.850092,102.404 118.102092,108.676 C117.438092,114.164 115.334092,114.952 114.586092,115.708 C112.438092,117.856 125.562092,125.06 127.258092,124.24 C131.654092,122.104 122.678092,102.364 128.802092,90.504 C133.750092,80.912 140.562092,76.544 140.562092,76.544" id="Fill-1364" fill="#FBE26D"></path>
                    <path d="M116.302092,107.772 C117.726092,107.148 122.462092,105 122.638092,103.036 C122.822092,101.068 124.510092,98.664 125.138092,96.964 C125.762092,95.268 125.494092,93.748 124.158092,95.444 C122.822092,97.148 119.866092,99.108 118.618092,99.732 C117.366092,100.352 116.302092,107.772 116.302092,107.772" id="Fill-1365" fill="#EEA173"></path>
                    <path d="M85.5300917,177.672 C90.5260917,169.716 88.9740917,165.488 87.7740917,162.476 C86.7220917,159.864 76.7500917,153.676 55.0460917,146.968 C51.3340917,146.724 47.6020917,148.02 46.0540917,148.112 C50.0340917,148.684 68.7420917,151.836 78.4540917,160.696 C80.0380917,162.156 82.8820917,165.376 80.9700917,170.288 C78.7820917,175.896 31.2420917,187.436 18.7740917,191.176 C20.5940917,195.484 21.4620917,197.068 23.0860917,199.408 C23.0860917,199.408 82.0780917,183.168 85.5300917,177.672" id="Fill-1366" fill="#052D82"></path>
                    <path d="M98.9620917,125.492 C99.5380917,125.328 102.978092,125.892 103.742092,126.184 C104.498092,126.492 106.602092,127.304 106.562092,128.08 C106.522092,128.856 105.398092,128.772 104.378092,129.108 C103.358092,129.436 99.8140917,129.62 99.8140917,129.62 L98.9620917,125.492" id="Fill-1367" fill="#DEBBA6"></path>
                    <polyline id="Fill-1368" fill="#404751" points="111.154092 124.812 107.686092 124.292 107.994092 122.208 111.470092 122.72 111.154092 124.812"></polyline>
                    <path d="M109.250092,123.284 C107.070092,127.928 103.466092,132.82 102.494092,132.056 C99.8700917,130.012 102.594092,132.032 104.062092,128.756 C105.542092,125.496 104.070092,123.016 104.070092,123.016 L109.250092,123.284" id="Fill-1369" fill="#404751"></path>
                    <path d="M106.110092,146.348 L103.010092,133.232 C102.194092,128.528 103.702092,124.524 105.022092,123.724 L102.114092,122.5 L102.134092,122.412 L101.962092,122.428 L101.154092,122.092 L101.086092,122.52 L97.9460917,122.864 C99.0100917,124.044 99.3060917,128.452 97.0220917,132.82 L90.5340917,144.064 L90.5540917,144.072 L90.2020917,144.736 L87.9180917,160.324 C87.8300917,160.944 88.2500917,161.512 88.8660917,161.604 L102.578092,163.616 C103.194092,163.708 103.762092,163.28 103.858092,162.664 L106.146092,147.068 C106.214092,146.584 106.110092,146.348 106.110092,146.348" id="Fill-1370" fill="#4689F0"></path>
                    <path d="M109.830092,123.544 C109.650092,124.772 105.638092,125.2 104.554092,125.036 L97.0060917,123.908 C95.9100917,123.748 95.8220917,122.744 96.0020917,121.512 C96.1820917,120.288 96.6100917,120.356 97.4740917,120.084 L105.726092,118.836 C106.826092,118.992 110.006092,122.32 109.830092,123.544" id="Fill-1372" fill="#003FB4"></path>
                    <path d="M57.3660917,148.944 C68.0940917,153.028 91.6980917,140.148 92.1540917,140.044 C94.3420917,139.452 97.5380917,139.68 100.726092,140.364 C102.530092,140.74 105.850092,138.684 106.230092,138.208 C107.258092,136.876 103.250092,138.028 103.250092,138.028 C103.250092,138.028 107.502092,137.676 107.962092,134.992 C108.202092,133.604 105.586092,134.952 105.586092,134.952 C105.586092,134.952 109.690092,133.224 108.066092,131.408 C107.678092,130.976 105.186092,132.12 105.186092,132.12 C105.186092,132.12 105.638092,132.304 107.282092,131.036 C108.774092,129.872 107.838092,129.032 106.322092,128.484 C105.938092,128.336 105.726092,129.992 103.906092,129.668 C98.8420917,128.748 99.3460917,127.56 99.3460917,127.56 C99.3460917,127.56 98.6820917,126.4 98.4860917,125.708 C98.3740917,125.34 97.6100917,125.524 96.8380917,125.8 C94.3580917,126.696 92.8260917,128.848 90.4220917,129.524 C90.4220917,129.524 73.3900917,137.232 67.6340917,135.292 C67.6340917,135.292 62.5700917,115.468 59.3140917,105.848 C58.9300917,104.708 40.2020917,112.364 40.2420277,115.756 C40.3500917,126.004 57.3660917,148.944 57.3660917,148.944" id="Fill-1374" fill="#EEA173"></path>
                    <path d="M49.5700917,93.616 C45.4860917,91.552 35.6780917,96.684 36.1260917,104.312 C36.5700917,111.932 42.3180917,132.704 43.1700917,133.024 C47.1980917,132.624 63.7220917,125.568 65.1340917,124.992 C66.5460917,124.412 54.5860917,96.148 49.5700917,93.616" id="Fill-1375" fill="#FF4D60"></path>
                    <path d="M45.4980917,93.304 C48.9860917,92.772 55.4460917,92.14 58.3260917,99.2 C61.2220917,106.272 66.5140917,124.496 66.5140917,124.496 L60.3380917,127.052 C60.3380917,127.052 54.2020917,107.092 51.7780917,100.952 C49.3460917,94.804 45.4980917,93.304 45.4980917,93.304" id="Fill-1376" fill="#DD3E5D"></path>
                </g>
            </g>
        </g>
    </g>
</svg>